<svg viewBox="0 0 20 20" xmlns="http://www.w3.org/2000/svg" xmlns:xlink="http://www.w3.org/1999/xlink" width="20.000000" height="20.000000" fill="none" customFrame="#000000">
	<defs>
		<clipPath id="clipPath_2">
			<rect width="20.000000" height="20.000000" x="0.000000" y="0.000000" fill="rgb(255,255,255)" />
		</clipPath>
	</defs>
	<rect id="Frame 1171277690" width="20.000000" height="20.000000" x="0.000000" y="0.000000" />
	<g id="fi_5968764" clip-path="url(#clipPath_2)" customFrame="url(#clipPath_2)">
		<rect id="fi_5968764" width="20.000000" height="20.000000" x="0.000000" y="0.000000" fill="rgb(255,255,255)" fill-opacity="0" />
		<g id="Group">
			<path id="Vector" d="M20 10C20 14.9914 16.343 19.1285 11.5625 19.8785L11.5625 12.8906L13.8926 12.8906L14.3359 10L11.5625 10L11.5625 8.12422C11.5625 7.3332 11.95 6.5625 13.1922 6.5625L14.4531 6.5625L14.4531 4.10156C14.4531 4.10156 13.3086 3.90625 12.2145 3.90625C9.93047 3.90625 8.4375 5.29063 8.4375 7.79688L8.4375 10L5.89844 10L5.89844 12.8906L8.4375 12.8906L8.4375 19.8785C3.65703 19.1285 0 14.9914 0 10C0 4.47734 4.47734 0 10 0C15.5227 0 20 4.47734 20 10Z" fill="rgb(255,255,255)" fill-rule="nonzero" />
			<path id="Vector" d="M13.8926 12.8906L14.3359 10L11.5625 10L11.5625 8.12418C11.5625 7.33336 11.9499 6.5625 13.1921 6.5625L14.4531 6.5625L14.4531 4.10156C14.4531 4.10156 13.3088 3.90625 12.2146 3.90625C9.93043 3.90625 8.4375 5.29063 8.4375 7.79688L8.4375 10L5.89844 10L5.89844 12.8906L8.4375 12.8906L8.4375 19.8785C8.94664 19.9584 9.46844 20 10 20C10.5316 20 11.0534 19.9584 11.5625 19.8785L11.5625 12.8906L13.8926 12.8906Z" fill="rgb(0,0,0)" fill-rule="nonzero" />
		</g>
	</g>
</svg>
