<svg viewBox="0 0 20 20" xmlns="http://www.w3.org/2000/svg" xmlns:xlink="http://www.w3.org/1999/xlink" width="20.000000" height="20.000000" fill="none" customFrame="#000000">
	<defs>
		<clipPath id="clipPath_1">
			<rect width="20.000000" height="20.000000" x="0.000000" y="0.000000" fill="rgb(255,255,255)" />
		</clipPath>
	</defs>
	<rect id="Frame 1171277689" width="20.000000" height="20.000000" x="0.000000" y="0.000000" />
	<g id="fi_145807" clip-path="url(#clipPath_1)" customFrame="url(#clipPath_1)">
		<rect id="fi_145807" width="20.000000" height="20.000000" x="0.000000" y="0.000000" fill="rgb(255,255,255)" fill-opacity="0" />
		<g id="Group">
			<path id="Vector" d="M10 20C15.5228 20 20 15.5228 20 10C20 4.47715 15.5228 0 10 0C4.47715 0 0 4.47715 0 10C0 15.5228 4.47715 20 10 20Z" fill="rgb(255,255,255)" fill-rule="evenodd" />
			<g id="Group">
				<path id="Vector" d="M15.975 10.8052L15.975 14.928L13.5847 14.928L13.5847 11.0815C13.5847 10.1157 13.2396 9.45615 12.3741 9.45615C11.7137 9.45615 11.3213 9.9002 11.1481 10.3302C11.0851 10.4838 11.0689 10.6972 11.0689 10.9127L11.0689 14.9278L8.67845 14.9278C8.67845 14.9278 8.71054 8.41316 8.67845 7.7388L11.0691 7.7388L11.0691 8.75756C11.0643 8.76558 11.0575 8.77342 11.0532 8.78109L11.0691 8.78109L11.0691 8.75756C11.3867 8.26877 11.9533 7.56999 13.2234 7.56999C14.796 7.56999 15.975 8.59748 15.975 10.8052ZM6.17783 4.27344C5.36015 4.27344 4.8252 4.81018 4.8252 5.51537C4.8252 6.20559 5.34464 6.75784 6.14645 6.75784L6.16196 6.75784C6.99568 6.75784 7.51406 6.20559 7.51406 5.51537C7.4982 4.81018 6.99568 4.27344 6.17783 4.27344ZM4.96727 14.928L7.35684 14.928L7.35684 7.7388L4.96727 7.7388L4.96727 14.928Z" fill="rgb(0,0,0)" fill-rule="nonzero" />
			</g>
		</g>
	</g>
</svg>
