<svg viewBox="0 0 20 20" xmlns="http://www.w3.org/2000/svg" xmlns:xlink="http://www.w3.org/1999/xlink" width="20.000000" height="20.000000" fill="none" customFrame="#000000">
	<defs>
		<clipPath id="clipPath_0">
			<rect width="20.000000" height="20.000000" x="0.000000" y="0.000000" fill="rgb(255,255,255)" />
		</clipPath>
	</defs>
	<rect id="Frame 1171277687" width="20.000000" height="20.000000" x="0.000000" y="0.000000" />
	<g id="fi_5969020" clip-path="url(#clipPath_0)" customFrame="url(#clipPath_0)">
		<rect id="fi_5969020" width="20.000000" height="20.000000" x="0.000000" y="0.000000" fill="rgb(255,255,255)" fill-opacity="0" />
		<g id="Group">
			<path id="Vector" d="M10 0C4.47734 0 0 4.47734 0 10C0 15.5227 4.47734 20 10 20C15.5227 20 20 15.5227 20 10C20 4.47734 15.5227 0 10 0Z" fill="rgb(255,255,255)" fill-rule="nonzero" />
			<path id="Vector" d="M11.0941 9.09531L15.375 4.11914L14.3606 4.11914L10.6435 8.43989L7.67468 4.11914L4.25049 4.11914L8.73993 10.6529L4.25049 15.8712L5.26498 15.8712L9.19032 11.3083L12.3256 15.8712L15.7498 15.8712L11.0939 9.09531L11.0941 9.09531ZM5.6305 4.88284L7.18869 4.88284L14.361 15.1422L12.8029 15.1422L5.6305 4.88284Z" fill="rgb(0,0,0)" fill-rule="nonzero" />
		</g>
	</g>
</svg>
